<svg version="1.2" xmlns="http://www.w3.org/2000/svg" viewBox="0 0 320 320" width="320" height="320">
	<style>
		.s0 { fill: #ffffff } 
	</style>
	<path id="u" class="s0" d="m88.8 98.8v102.9q0 9.3 4.5 14.4 4.6 5.1 12.7 5.1 8.2 0 15.9-8.4 7.7-8.4 7.7-21.9v-105.9h36v116.7q0 8.1 3.1 12.9 3.1 4.5 9.6 4.5 6.5 0 14.9-8.7l4.3 7.2q-19.2 21.9-39.1 21.9-20 0-26.4-22.2-9.4 12.3-19.5 17.4-9.8 4.8-25.4 4.8-15.4 0-25-11.7-9.3-12-9.3-32.4v-100.5q-13.2 4.2-20.2 14.7l-6.5-9.3q7-9 17.5-14.4 10.8-5.4 21.2-5.4 10.5 0 17.2 5.4 6.8 5.1 6.8 12.9z"/>
	<path id="&gt;" class="s0" d="m182.7 93.3h40.5l44.2 54.7-44.5 53.7h-40.2l43.9-53.7z"/>
	<path id="_" class="s0" d="m231.4 202.9h88.8v16.8h-88.8z"/>
</svg>